<mxfile host="app.diagrams.net" modified="2023-10-05T02:02:15.421Z" agent="Mozilla/5.0 (Windows NT 10.0; Win64; x64) AppleWebKit/537.36 (KHTML, like Gecko) Chrome/117.0.0.0 Safari/537.36" version="22.0.2" etag="Zw97Cbup4DlwjSVNJ63u" type="device">
  <diagram id="2swYPJoV_FrtuQzKc0Ms" name="Page-1">
    <mxGraphModel dx="1313" dy="668" grid="1" gridSize="10" guides="1" tooltips="1" connect="1" arrows="1" fold="1" page="1" pageScale="1" pageWidth="1200" pageHeight="1600" math="0" shadow="0">
      <root>
        <mxCell id="0" />
        <mxCell id="1" parent="0" />
        <mxCell id="2" value="STUDENT" style="rounded=0;whiteSpace=wrap;html=1;" parent="1" vertex="1">
          <mxGeometry x="180" y="190" width="150" height="50" as="geometry" />
        </mxCell>
        <mxCell id="3" value="&lt;u&gt;ROLL NO&lt;/u&gt;" style="ellipse;whiteSpace=wrap;html=1;" parent="1" vertex="1">
          <mxGeometry x="190" y="50" width="110" height="50" as="geometry" />
        </mxCell>
        <mxCell id="lJbOlf-pian9ZVg5hmV1-36" style="edgeStyle=none;rounded=0;orthogonalLoop=1;jettySize=auto;html=1;exitX=0.5;exitY=1;exitDx=0;exitDy=0;entryX=0.75;entryY=0;entryDx=0;entryDy=0;endArrow=none;endFill=0;" edge="1" parent="1" source="4" target="2">
          <mxGeometry relative="1" as="geometry" />
        </mxCell>
        <mxCell id="4" value="NAME" style="ellipse;whiteSpace=wrap;html=1;" parent="1" vertex="1">
          <mxGeometry x="310" y="100" width="90" height="50" as="geometry" />
        </mxCell>
        <mxCell id="lJbOlf-pian9ZVg5hmV1-40" style="edgeStyle=none;rounded=0;orthogonalLoop=1;jettySize=auto;html=1;exitX=1;exitY=1;exitDx=0;exitDy=0;endArrow=none;endFill=0;" edge="1" parent="1" source="5" target="2">
          <mxGeometry relative="1" as="geometry" />
        </mxCell>
        <mxCell id="5" value="D.O.B" style="ellipse;whiteSpace=wrap;html=1;" parent="1" vertex="1">
          <mxGeometry x="70" y="100" width="90" height="50" as="geometry" />
        </mxCell>
        <mxCell id="lJbOlf-pian9ZVg5hmV1-39" style="edgeStyle=none;rounded=0;orthogonalLoop=1;jettySize=auto;html=1;exitX=1;exitY=0.5;exitDx=0;exitDy=0;entryX=0;entryY=0.5;entryDx=0;entryDy=0;endArrow=none;endFill=0;" edge="1" parent="1" source="6" target="2">
          <mxGeometry relative="1" as="geometry" />
        </mxCell>
        <mxCell id="6" value="DEPT" style="ellipse;whiteSpace=wrap;html=1;" parent="1" vertex="1">
          <mxGeometry x="40" y="190" width="90" height="50" as="geometry" />
        </mxCell>
        <mxCell id="7" value="PHONE" style="ellipse;whiteSpace=wrap;html=1;" parent="1" vertex="1">
          <mxGeometry x="130" y="280" width="90" height="50" as="geometry" />
        </mxCell>
        <mxCell id="lJbOlf-pian9ZVg5hmV1-37" style="edgeStyle=none;rounded=0;orthogonalLoop=1;jettySize=auto;html=1;exitX=0.5;exitY=0;exitDx=0;exitDy=0;entryX=0.75;entryY=1;entryDx=0;entryDy=0;endArrow=none;endFill=0;" edge="1" parent="1" source="8" target="2">
          <mxGeometry relative="1" as="geometry" />
        </mxCell>
        <mxCell id="8" value="ADDRESS" style="ellipse;whiteSpace=wrap;html=1;" parent="1" vertex="1">
          <mxGeometry x="280" y="280" width="90" height="50" as="geometry" />
        </mxCell>
        <mxCell id="10" value="NAME" style="ellipse;whiteSpace=wrap;html=1;" parent="1" vertex="1">
          <mxGeometry x="760" y="70" width="90" height="50" as="geometry" />
        </mxCell>
        <mxCell id="lJbOlf-pian9ZVg5hmV1-41" style="edgeStyle=none;rounded=0;orthogonalLoop=1;jettySize=auto;html=1;exitX=0.5;exitY=1;exitDx=0;exitDy=0;endArrow=none;endFill=0;" edge="1" parent="1" source="11" target="lJbOlf-pian9ZVg5hmV1-29">
          <mxGeometry relative="1" as="geometry" />
        </mxCell>
        <mxCell id="11" value="&lt;u&gt;ROLL&lt;/u&gt; &lt;u&gt;NO&lt;/u&gt;" style="ellipse;whiteSpace=wrap;html=1;" parent="1" vertex="1">
          <mxGeometry x="610" y="70" width="110" height="50" as="geometry" />
        </mxCell>
        <mxCell id="25" value="GRADE" style="ellipse;shape=doubleEllipse;whiteSpace=wrap;html=1;" parent="1" vertex="1">
          <mxGeometry x="585" y="295" width="100" height="60" as="geometry" />
        </mxCell>
        <mxCell id="26" value="SUBJECT NAME" style="ellipse;shape=doubleEllipse;whiteSpace=wrap;html=1;" parent="1" vertex="1">
          <mxGeometry x="750" y="295" width="100" height="60" as="geometry" />
        </mxCell>
        <mxCell id="lJbOlf-pian9ZVg5hmV1-44" style="edgeStyle=none;rounded=0;orthogonalLoop=1;jettySize=auto;html=1;exitX=0;exitY=0.5;exitDx=0;exitDy=0;entryX=1;entryY=0.75;entryDx=0;entryDy=0;endArrow=none;endFill=0;" edge="1" parent="1" source="27" target="lJbOlf-pian9ZVg5hmV1-29">
          <mxGeometry relative="1" as="geometry" />
        </mxCell>
        <mxCell id="27" value="SUBJECT CODE" style="ellipse;shape=doubleEllipse;whiteSpace=wrap;html=1;" parent="1" vertex="1">
          <mxGeometry x="900" y="210" width="100" height="60" as="geometry" />
        </mxCell>
        <mxCell id="lJbOlf-pian9ZVg5hmV1-43" style="edgeStyle=none;rounded=0;orthogonalLoop=1;jettySize=auto;html=1;exitX=0;exitY=1;exitDx=0;exitDy=0;entryX=1;entryY=0.25;entryDx=0;entryDy=0;endArrow=none;endFill=0;" edge="1" parent="1" source="28" target="lJbOlf-pian9ZVg5hmV1-29">
          <mxGeometry relative="1" as="geometry" />
        </mxCell>
        <mxCell id="28" value="MARKS" style="ellipse;shape=doubleEllipse;whiteSpace=wrap;html=1;" parent="1" vertex="1">
          <mxGeometry x="900" y="110" width="100" height="60" as="geometry" />
        </mxCell>
        <mxCell id="lJbOlf-pian9ZVg5hmV1-47" style="edgeStyle=none;rounded=0;orthogonalLoop=1;jettySize=auto;html=1;exitX=1;exitY=1;exitDx=0;exitDy=0;endArrow=none;endFill=0;" edge="1" parent="1" source="29" target="lJbOlf-pian9ZVg5hmV1-29">
          <mxGeometry relative="1" as="geometry" />
        </mxCell>
        <mxCell id="29" value="GPA" style="ellipse;whiteSpace=wrap;lines=dottedhtml=1;dashed=1;" parent="1" vertex="1">
          <mxGeometry x="500" y="110" width="110" height="50" as="geometry" />
        </mxCell>
        <mxCell id="lJbOlf-pian9ZVg5hmV1-29" value="MARKSHEET" style="shape=ext;double=1;rounded=0;whiteSpace=wrap;html=1;" vertex="1" parent="1">
          <mxGeometry x="670" y="190" width="160" height="50" as="geometry" />
        </mxCell>
        <mxCell id="lJbOlf-pian9ZVg5hmV1-35" style="edgeStyle=none;rounded=0;orthogonalLoop=1;jettySize=auto;html=1;exitX=0.5;exitY=1;exitDx=0;exitDy=0;entryX=0.435;entryY=-0.016;entryDx=0;entryDy=0;entryPerimeter=0;endArrow=none;endFill=0;" edge="1" parent="1" source="3" target="2">
          <mxGeometry relative="1" as="geometry" />
        </mxCell>
        <mxCell id="lJbOlf-pian9ZVg5hmV1-38" style="edgeStyle=none;rounded=0;orthogonalLoop=1;jettySize=auto;html=1;exitX=0.5;exitY=0;exitDx=0;exitDy=0;entryX=0.163;entryY=1.04;entryDx=0;entryDy=0;entryPerimeter=0;endArrow=none;endFill=0;" edge="1" parent="1" source="7" target="2">
          <mxGeometry relative="1" as="geometry" />
        </mxCell>
        <mxCell id="lJbOlf-pian9ZVg5hmV1-42" style="edgeStyle=none;rounded=0;orthogonalLoop=1;jettySize=auto;html=1;exitX=0.5;exitY=1;exitDx=0;exitDy=0;entryX=0.815;entryY=-0.016;entryDx=0;entryDy=0;entryPerimeter=0;endArrow=none;endFill=0;" edge="1" parent="1" source="10" target="lJbOlf-pian9ZVg5hmV1-29">
          <mxGeometry relative="1" as="geometry" />
        </mxCell>
        <mxCell id="lJbOlf-pian9ZVg5hmV1-45" style="edgeStyle=none;rounded=0;orthogonalLoop=1;jettySize=auto;html=1;exitX=0.5;exitY=0;exitDx=0;exitDy=0;entryX=0.8;entryY=1.056;entryDx=0;entryDy=0;entryPerimeter=0;endArrow=none;endFill=0;" edge="1" parent="1" source="26" target="lJbOlf-pian9ZVg5hmV1-29">
          <mxGeometry relative="1" as="geometry" />
        </mxCell>
        <mxCell id="lJbOlf-pian9ZVg5hmV1-46" style="edgeStyle=none;rounded=0;orthogonalLoop=1;jettySize=auto;html=1;exitX=1;exitY=0;exitDx=0;exitDy=0;entryX=0.35;entryY=1.024;entryDx=0;entryDy=0;entryPerimeter=0;endArrow=none;endFill=0;" edge="1" parent="1" source="25" target="lJbOlf-pian9ZVg5hmV1-29">
          <mxGeometry relative="1" as="geometry" />
        </mxCell>
        <mxCell id="lJbOlf-pian9ZVg5hmV1-51" style="edgeStyle=none;rounded=0;orthogonalLoop=1;jettySize=auto;html=1;exitX=1;exitY=0.5;exitDx=0;exitDy=0;entryX=0;entryY=0.5;entryDx=0;entryDy=0;endArrow=none;endFill=0;" edge="1" parent="1" source="lJbOlf-pian9ZVg5hmV1-50" target="lJbOlf-pian9ZVg5hmV1-29">
          <mxGeometry relative="1" as="geometry" />
        </mxCell>
        <mxCell id="lJbOlf-pian9ZVg5hmV1-52" style="edgeStyle=none;rounded=0;orthogonalLoop=1;jettySize=auto;html=1;exitX=0;exitY=0.5;exitDx=0;exitDy=0;endArrow=none;endFill=0;" edge="1" parent="1" source="lJbOlf-pian9ZVg5hmV1-50" target="2">
          <mxGeometry relative="1" as="geometry" />
        </mxCell>
        <mxCell id="lJbOlf-pian9ZVg5hmV1-50" value="HAS" style="shape=rhombus;double=1;perimeter=rhombusPerimeter;whiteSpace=wrap;html=1;align=center;" vertex="1" parent="1">
          <mxGeometry x="430" y="185" width="120" height="60" as="geometry" />
        </mxCell>
      </root>
    </mxGraphModel>
  </diagram>
</mxfile>
